<svg width="99" height="208" viewBox="0 0 99 208" fill="none" xmlns="http://www.w3.org/2000/svg">
<g opacity="0.4">
<ellipse cx="9.49699" cy="2.52239" rx="2.52238" ry="2.52239" fill="#0066FC"/>
<ellipse cx="9.49699" cy="31.5156" rx="2.52238" ry="2.52239" fill="#0066FC"/>
<ellipse cx="9.49699" cy="60.5097" rx="2.52238" ry="2.52239" fill="#0066FC"/>
<ellipse cx="9.49699" cy="89.5029" rx="2.52238" ry="2.52239" fill="#0066FC"/>
<ellipse cx="9.49699" cy="118.497" rx="2.52238" ry="2.52239" fill="#0066FC"/>
<ellipse cx="9.49699" cy="147.49" rx="2.52238" ry="2.52239" fill="#0066FC"/>
<ellipse cx="9.49699" cy="176.484" rx="2.52238" ry="2.52239" fill="#0066FC"/>
<ellipse cx="9.49699" cy="205.477" rx="2.52238" ry="2.52239" fill="#0066FC"/>
<ellipse cx="38.4902" cy="2.52239" rx="2.52238" ry="2.52239" fill="#0066FC"/>
<ellipse cx="38.4911" cy="31.5156" rx="2.52238" ry="2.52239" fill="#0066FC"/>
<ellipse cx="38.4911" cy="60.5097" rx="2.52238" ry="2.52239" fill="#0066FC"/>
<ellipse cx="38.4911" cy="89.5029" rx="2.52238" ry="2.52239" fill="#0066FC"/>
<ellipse cx="38.4911" cy="118.497" rx="2.52238" ry="2.52239" fill="#0066FC"/>
<ellipse cx="38.4911" cy="147.49" rx="2.52238" ry="2.52239" fill="#0066FC"/>
<ellipse cx="38.4911" cy="176.484" rx="2.52238" ry="2.52239" fill="#0066FC"/>
<ellipse cx="38.4911" cy="205.477" rx="2.52238" ry="2.52239" fill="#0066FC"/>
<ellipse cx="67.4843" cy="2.52239" rx="2.52238" ry="2.52239" fill="#0066FC"/>
<ellipse cx="67.4833" cy="31.5156" rx="2.52238" ry="2.52239" fill="#0066FC"/>
<ellipse cx="67.4833" cy="60.5097" rx="2.52238" ry="2.52239" fill="#0066FC"/>
<ellipse cx="67.4833" cy="89.5029" rx="2.52238" ry="2.52239" fill="#0066FC"/>
<ellipse cx="67.4833" cy="118.497" rx="2.52238" ry="2.52239" fill="#0066FC"/>
<ellipse cx="67.4833" cy="147.49" rx="2.52238" ry="2.52239" fill="#0066FC"/>
<ellipse cx="67.4833" cy="176.484" rx="2.52238" ry="2.52239" fill="#0066FC"/>
<ellipse cx="67.4833" cy="205.477" rx="2.52238" ry="2.52239" fill="#0066FC"/>
<ellipse cx="96.4775" cy="2.52239" rx="2.52238" ry="2.52239" fill="#0066FC"/>
<ellipse cx="96.4775" cy="31.5156" rx="2.52238" ry="2.52239" fill="#0066FC"/>
<ellipse cx="96.4775" cy="60.5097" rx="2.52238" ry="2.52239" fill="#0066FC"/>
<ellipse cx="96.4775" cy="89.5029" rx="2.52238" ry="2.52239" fill="#0066FC"/>
<ellipse cx="96.4775" cy="118.497" rx="2.52238" ry="2.52239" fill="#0066FC"/>
<ellipse cx="96.4775" cy="147.49" rx="2.52238" ry="2.52239" fill="#0066FC"/>
<ellipse cx="96.4775" cy="176.484" rx="2.52238" ry="2.52239" fill="#0066FC"/>
<ellipse cx="96.4775" cy="205.477" rx="2.52238" ry="2.52239" fill="#0066FC"/>
</g>
</svg>
