<svg width="265" height="265" viewBox="0 0 265 265" fill="none" xmlns="http://www.w3.org/2000/svg">
<g opacity="0.2">
<circle cx="2.52778" cy="2.52778" r="2.52778" fill="#0066FC"/>
<circle cx="2.52778" cy="39.5834" r="2.52778" fill="#0066FC"/>
<circle cx="2.52778" cy="76.6389" r="2.52778" fill="#0066FC"/>
<circle cx="2.52778" cy="113.694" r="2.52778" fill="#0066FC"/>
<circle cx="2.52778" cy="150.75" r="2.52778" fill="#0066FC"/>
<circle cx="2.52778" cy="187.806" r="2.52778" fill="#0066FC"/>
<circle cx="2.52778" cy="224.861" r="2.52778" fill="#0066FC"/>
<circle cx="2.52778" cy="261.916" r="2.52778" fill="#0066FC"/>
<circle cx="39.5834" cy="2.52778" r="2.52778" fill="#0066FC"/>
<circle cx="39.5834" cy="39.5834" r="2.52778" fill="#0066FC"/>
<circle cx="39.5834" cy="76.6389" r="2.52778" fill="#0066FC"/>
<circle cx="39.5834" cy="113.694" r="2.52778" fill="#0066FC"/>
<circle cx="39.5834" cy="150.75" r="2.52778" fill="#0066FC"/>
<circle cx="39.5834" cy="187.806" r="2.52778" fill="#0066FC"/>
<circle cx="39.5834" cy="224.861" r="2.52778" fill="#0066FC"/>
<circle cx="39.5834" cy="261.916" r="2.52778" fill="#0066FC"/>
<circle cx="76.6391" cy="2.52778" r="2.52778" fill="#0066FC"/>
<circle cx="76.6391" cy="39.5834" r="2.52778" fill="#0066FC"/>
<circle cx="76.6391" cy="76.6389" r="2.52778" fill="#0066FC"/>
<circle cx="76.6391" cy="113.694" r="2.52778" fill="#0066FC"/>
<circle cx="76.6391" cy="150.75" r="2.52778" fill="#0066FC"/>
<circle cx="76.6391" cy="187.806" r="2.52778" fill="#0066FC"/>
<circle cx="76.6391" cy="224.861" r="2.52778" fill="#0066FC"/>
<circle cx="76.6391" cy="261.916" r="2.52778" fill="#0066FC"/>
<circle cx="113.695" cy="2.52778" r="2.52778" fill="#0066FC"/>
<circle cx="113.695" cy="39.5834" r="2.52778" fill="#0066FC"/>
<circle cx="113.695" cy="76.6389" r="2.52778" fill="#0066FC"/>
<circle cx="113.695" cy="113.694" r="2.52778" fill="#0066FC"/>
<circle cx="113.695" cy="150.75" r="2.52778" fill="#0066FC"/>
<circle cx="113.695" cy="187.806" r="2.52778" fill="#0066FC"/>
<circle cx="113.695" cy="224.861" r="2.52778" fill="#0066FC"/>
<circle cx="113.695" cy="261.916" r="2.52778" fill="#0066FC"/>
<circle cx="150.75" cy="2.52778" r="2.52778" fill="#0066FC"/>
<circle cx="150.75" cy="39.5834" r="2.52778" fill="#0066FC"/>
<circle cx="150.75" cy="76.6389" r="2.52778" fill="#0066FC"/>
<circle cx="150.75" cy="113.694" r="2.52778" fill="#0066FC"/>
<circle cx="150.75" cy="150.75" r="2.52778" fill="#0066FC"/>
<circle cx="150.75" cy="187.806" r="2.52778" fill="#0066FC"/>
<circle cx="150.75" cy="224.861" r="2.52778" fill="#0066FC"/>
<circle cx="150.75" cy="261.916" r="2.52778" fill="#0066FC"/>
<circle cx="187.806" cy="2.52778" r="2.52778" fill="#0066FC"/>
<circle cx="187.806" cy="39.5834" r="2.52778" fill="#0066FC"/>
<circle cx="187.806" cy="76.6389" r="2.52778" fill="#0066FC"/>
<circle cx="187.806" cy="113.694" r="2.52778" fill="#0066FC"/>
<circle cx="187.806" cy="150.75" r="2.52778" fill="#0066FC"/>
<circle cx="187.806" cy="187.806" r="2.52778" fill="#0066FC"/>
<circle cx="187.806" cy="224.861" r="2.52778" fill="#0066FC"/>
<circle cx="187.806" cy="261.916" r="2.52778" fill="#0066FC"/>
<circle cx="224.862" cy="2.52778" r="2.52778" fill="#0066FC"/>
<circle cx="224.862" cy="39.5834" r="2.52778" fill="#0066FC"/>
<circle cx="224.862" cy="76.6389" r="2.52778" fill="#0066FC"/>
<circle cx="224.862" cy="113.694" r="2.52778" fill="#0066FC"/>
<circle cx="224.862" cy="150.75" r="2.52778" fill="#0066FC"/>
<circle cx="224.862" cy="187.806" r="2.52778" fill="#0066FC"/>
<circle cx="224.862" cy="224.861" r="2.52778" fill="#0066FC"/>
<circle cx="224.862" cy="261.916" r="2.52778" fill="#0066FC"/>
<circle cx="261.917" cy="2.52778" r="2.52778" fill="#0066FC"/>
<circle cx="261.917" cy="39.5834" r="2.52778" fill="#0066FC"/>
<circle cx="261.917" cy="76.6389" r="2.52778" fill="#0066FC"/>
<circle cx="261.917" cy="113.694" r="2.52778" fill="#0066FC"/>
<circle cx="261.917" cy="150.75" r="2.52778" fill="#0066FC"/>
<circle cx="261.917" cy="187.806" r="2.52778" fill="#0066FC"/>
<circle cx="261.917" cy="224.861" r="2.52778" fill="#0066FC"/>
<circle cx="261.917" cy="261.916" r="2.52778" fill="#0066FC"/>
</g>
</svg>
