<svg width="117" height="208" viewBox="0 0 117 208" fill="none" xmlns="http://www.w3.org/2000/svg">
<g opacity="0.4">
<ellipse cx="2.52238" cy="2.52239" rx="2.52238" ry="2.52239" fill="#0066FC"/>
<ellipse cx="2.52238" cy="31.516" rx="2.52238" ry="2.52239" fill="#0066FC"/>
<ellipse cx="2.52238" cy="60.5097" rx="2.52238" ry="2.52239" fill="#0066FC"/>
<ellipse cx="2.52238" cy="89.5033" rx="2.52238" ry="2.52239" fill="#0066FC"/>
<ellipse cx="2.52238" cy="118.497" rx="2.52238" ry="2.52239" fill="#0066FC"/>
<ellipse cx="2.52238" cy="147.49" rx="2.52238" ry="2.52239" fill="#0066FC"/>
<ellipse cx="2.52238" cy="176.484" rx="2.52238" ry="2.52239" fill="#0066FC"/>
<ellipse cx="2.52238" cy="205.477" rx="2.52238" ry="2.52239" fill="#0066FC"/>
<ellipse cx="31.5155" cy="2.52239" rx="2.52238" ry="2.52239" fill="#0066FC"/>
<ellipse cx="31.5165" cy="31.516" rx="2.52238" ry="2.52239" fill="#0066FC"/>
<ellipse cx="31.5165" cy="60.5097" rx="2.52238" ry="2.52239" fill="#0066FC"/>
<ellipse cx="31.5165" cy="89.5033" rx="2.52238" ry="2.52239" fill="#0066FC"/>
<ellipse cx="31.5165" cy="118.497" rx="2.52238" ry="2.52239" fill="#0066FC"/>
<ellipse cx="31.5165" cy="147.49" rx="2.52238" ry="2.52239" fill="#0066FC"/>
<ellipse cx="31.5165" cy="176.484" rx="2.52238" ry="2.52239" fill="#0066FC"/>
<ellipse cx="31.5165" cy="205.477" rx="2.52238" ry="2.52239" fill="#0066FC"/>
<ellipse cx="60.5097" cy="2.52239" rx="2.52238" ry="2.52239" fill="#0066FC"/>
<ellipse cx="60.5097" cy="31.516" rx="2.52238" ry="2.52239" fill="#0066FC"/>
<ellipse cx="60.5097" cy="60.5097" rx="2.52238" ry="2.52239" fill="#0066FC"/>
<ellipse cx="60.5097" cy="89.5033" rx="2.52238" ry="2.52239" fill="#0066FC"/>
<ellipse cx="60.5097" cy="118.497" rx="2.52238" ry="2.52239" fill="#0066FC"/>
<ellipse cx="60.5097" cy="147.49" rx="2.52238" ry="2.52239" fill="#0066FC"/>
<ellipse cx="60.5097" cy="176.484" rx="2.52238" ry="2.52239" fill="#0066FC"/>
<ellipse cx="60.5097" cy="205.477" rx="2.52238" ry="2.52239" fill="#0066FC"/>
<ellipse cx="89.5028" cy="2.52239" rx="2.52238" ry="2.52239" fill="#0066FC"/>
<ellipse cx="89.5028" cy="31.516" rx="2.52238" ry="2.52239" fill="#0066FC"/>
<ellipse cx="89.5028" cy="60.5097" rx="2.52238" ry="2.52239" fill="#0066FC"/>
<ellipse cx="89.5028" cy="89.5033" rx="2.52238" ry="2.52239" fill="#0066FC"/>
<ellipse cx="89.5028" cy="118.497" rx="2.52238" ry="2.52239" fill="#0066FC"/>
<ellipse cx="89.5028" cy="147.49" rx="2.52238" ry="2.52239" fill="#0066FC"/>
<ellipse cx="89.5028" cy="176.484" rx="2.52238" ry="2.52239" fill="#0066FC"/>
<ellipse cx="89.5028" cy="205.477" rx="2.52238" ry="2.52239" fill="#0066FC"/>
<ellipse cx="118.497" cy="2.52239" rx="2.52238" ry="2.52239" fill="#0066FC"/>
<ellipse cx="118.497" cy="31.516" rx="2.52238" ry="2.52239" fill="#0066FC"/>
<ellipse cx="118.497" cy="60.5097" rx="2.52238" ry="2.52239" fill="#0066FC"/>
<ellipse cx="118.497" cy="89.5033" rx="2.52238" ry="2.52239" fill="#0066FC"/>
<ellipse cx="118.497" cy="118.497" rx="2.52238" ry="2.52239" fill="#0066FC"/>
<ellipse cx="118.497" cy="147.49" rx="2.52238" ry="2.52239" fill="#0066FC"/>
<ellipse cx="118.497" cy="176.484" rx="2.52238" ry="2.52239" fill="#0066FC"/>
<ellipse cx="118.497" cy="205.477" rx="2.52238" ry="2.52239" fill="#0066FC"/>
</g>
</svg>
