<svg width="65" height="46" viewBox="0 0 65 46" fill="none" xmlns="http://www.w3.org/2000/svg">
<path d="M55.0633 18.2256H49.6142L46.0744 8.6959C45.3287 6.74381 43.691 5.02128 41.4167 3.79702C39.1425 2.57276 36.3596 1.91564 33.5023 1.92815H20.5267C17.4425 1.90181 14.4479 2.66204 12.0907 4.06981C9.73343 5.47757 8.17101 7.4388 7.68915 9.59482L2.81415 31.9662C2.63202 32.8038 2.70865 33.6594 3.03874 34.474C3.36884 35.2886 3.94455 36.043 4.72623 36.685C6.14694 37.8423 8.1369 38.5735 10.2919 38.7301C10.5919 40.2069 11.6309 41.5584 13.22 42.5389C14.8091 43.5194 16.8427 44.0636 18.951 44.0727C21.0592 44.0817 23.102 43.555 24.7078 42.5882C26.3136 41.6215 27.3757 40.2789 27.701 38.8048H37.646C37.9703 40.2728 39.025 41.6105 40.6201 42.5766C42.2153 43.5427 44.2457 44.0736 46.3452 44.0736C48.4447 44.0736 50.4751 43.5427 52.0702 42.5766C53.6653 41.6105 54.7201 40.2728 55.0444 38.8048V38.8048C56.9412 38.8145 58.766 38.2912 60.1182 37.3497C61.4704 36.4082 62.2395 35.1255 62.2567 33.7832V23.2415C62.2374 21.9025 61.4699 20.6233 60.1221 19.6834C58.7742 18.7435 56.9555 18.2194 55.0633 18.2256ZM28.4052 3.90232H33.5023C35.7434 3.88996 37.9273 4.40298 39.7131 5.36133C41.4989 6.31968 42.7863 7.66944 43.3741 9.19999L46.7271 18.2275H29.7133C29.0136 18.2277 28.3228 18.1166 27.692 17.9023C27.0612 17.688 26.5065 17.3761 26.0691 16.9896C25.6317 16.6031 25.3226 16.1519 25.1649 15.6695C25.0072 15.187 25.0048 14.6857 25.1579 14.2025L28.4052 3.90232ZM19.0073 42.0977C17.8105 42.098 16.6404 41.8472 15.6451 41.377C14.6498 40.9067 13.8738 40.2381 13.4155 39.4557C12.9571 38.6734 12.8369 37.8124 13.0701 36.9816C13.3032 36.1509 13.8793 35.3878 14.7253 34.7888C15.5714 34.1898 16.6495 33.7818 17.8232 33.6164C18.9969 33.451 20.2136 33.5357 21.3193 33.8597C22.4251 34.1838 23.3702 34.7326 24.0351 35.4368C24.7001 36.1409 25.055 36.9689 25.055 37.8158C25.0536 38.9508 24.416 40.039 23.2822 40.8417C22.1485 41.6445 20.611 42.0961 19.0073 42.0977V42.0977ZM46.3614 42.0977C45.1647 42.098 43.9946 41.8472 42.9993 41.377C42.0039 40.9067 41.228 40.2381 40.7697 39.4557C40.3113 38.6734 40.1911 37.8124 40.4242 36.9816C40.6574 36.1509 41.2334 35.3878 42.0795 34.7888C42.9255 34.1898 44.0036 33.7818 45.1774 33.6164C46.3511 33.451 47.5678 33.5357 48.6735 33.8597C49.7792 34.1838 50.7243 34.7326 51.3893 35.4368C52.0542 36.1409 52.4092 36.9689 52.4092 37.8158C52.4077 38.9521 51.7687 40.0415 50.6326 40.8444C49.4965 41.6474 47.9563 42.0982 46.3506 42.0977H46.3614ZM59.4942 33.7832C59.477 34.5994 59.0044 35.3778 58.1794 35.9483C57.3543 36.5189 56.2439 36.8354 55.0904 36.8287C54.76 35.3583 53.6994 34.0195 52.0991 33.0528C50.4989 32.0862 48.464 31.5552 46.3601 31.5552C44.2562 31.5552 42.2213 32.0862 40.621 33.0528C39.0208 34.0195 37.9602 35.3583 37.6298 36.8287H27.7362C27.3742 35.3691 26.3046 34.0445 24.7114 33.0828C23.1182 32.1211 21.1011 31.5825 19.0073 31.5598C16.9275 31.5822 14.9228 32.1136 13.334 33.0636C11.7451 34.0137 10.6702 35.3238 10.2919 36.7712C8.95461 36.6175 7.73723 36.1342 6.85498 35.4066C6.33515 34.9808 5.95193 34.4804 5.73171 33.9397C5.51149 33.399 5.45951 32.831 5.57936 32.2747L10.4544 9.9034C10.8342 8.21356 12.0613 6.67704 13.9109 5.57503C15.7605 4.47302 18.109 3.87923 20.5267 3.90232H25.5452L22.4333 13.7732C22.1904 14.545 22.1955 15.3456 22.4483 16.1159C22.7011 16.8862 23.1951 17.6064 23.8939 18.2235C24.5927 18.8405 25.4784 19.3387 26.4857 19.681C27.4929 20.0234 28.5959 20.2013 29.7133 20.2017H55.0633C56.2198 20.1914 57.3349 20.5064 58.1636 21.0774C58.9922 21.6484 59.4669 22.4288 59.4833 23.2472L59.4942 33.7832Z" fill="#0066FC"/>
</svg>
