<svg width="184" height="37" viewBox="0 0 184 37" fill="none" xmlns="http://www.w3.org/2000/svg">
<path d="M49.4 18C49.4 15.2533 50.0133 12.8 51.24 10.64C52.4933 8.45333 54.1867 6.76 56.32 5.56C58.48 4.33333 60.8933 3.72 63.56 3.72C66.68 3.72 69.4133 4.52 71.76 6.12C74.1067 7.72 75.7467 9.93333 76.68 12.76H70.24C69.6 11.4267 68.6933 10.4267 67.52 9.76C66.3733 9.09333 65.04 8.76 63.52 8.76C61.8933 8.76 60.44 9.14667 59.16 9.92C57.9067 10.6667 56.92 11.7333 56.2 13.12C55.5067 14.5067 55.16 16.1333 55.16 18C55.16 19.84 55.5067 21.4667 56.2 22.88C56.92 24.2667 57.9067 25.3467 59.16 26.12C60.44 26.8667 61.8933 27.24 63.52 27.24C65.04 27.24 66.3733 26.9067 67.52 26.24C68.6933 25.5467 69.6 24.5333 70.24 23.2H76.68C75.7467 26.0533 74.1067 28.28 71.76 29.88C69.44 31.4533 66.7067 32.24 63.56 32.24C60.8933 32.24 58.48 31.64 56.32 30.44C54.1867 29.2133 52.4933 27.52 51.24 25.36C50.0133 23.2 49.4 20.7467 49.4 18ZM80.0231 20.84C80.0231 18.6 80.4631 16.6133 81.3431 14.88C82.2498 13.1467 83.4631 11.8133 84.9831 10.88C86.5298 9.94667 88.2498 9.48 90.1431 9.48C91.7965 9.48 93.2365 9.81333 94.4631 10.48C95.7165 11.1467 96.7165 11.9867 97.4631 13V9.84H103.103V32H97.4631V28.76C96.7431 29.8 95.7431 30.6667 94.4631 31.36C93.2098 32.0267 91.7565 32.36 90.1031 32.36C88.2365 32.36 86.5298 31.88 84.9831 30.92C83.4631 29.96 82.2498 28.6133 81.3431 26.88C80.4631 25.12 80.0231 23.1067 80.0231 20.84ZM97.4631 20.92C97.4631 19.56 97.1965 18.4 96.6631 17.44C96.1298 16.4533 95.4098 15.7067 94.5031 15.2C93.5965 14.6667 92.6231 14.4 91.5831 14.4C90.5431 14.4 89.5831 14.6533 88.7031 15.16C87.8231 15.6667 87.1031 16.4133 86.5431 17.4C86.0098 18.36 85.7431 19.5067 85.7431 20.84C85.7431 22.1733 86.0098 23.3467 86.5431 24.36C87.1031 25.3467 87.8231 26.1067 88.7031 26.64C89.6098 27.1733 90.5698 27.44 91.5831 27.44C92.6231 27.44 93.5965 27.1867 94.5031 26.68C95.4098 26.1467 96.1298 25.4 96.6631 24.44C97.1965 23.4533 97.4631 22.28 97.4631 20.92ZM114.173 13.28C114.893 12.1067 115.826 11.1867 116.973 10.52C118.146 9.85333 119.479 9.52 120.973 9.52V15.4H119.493C117.733 15.4 116.399 15.8133 115.493 16.64C114.613 17.4667 114.173 18.9067 114.173 20.96V32H108.573V9.84H114.173V13.28ZM133.984 26.84L139.584 9.84H145.544L137.344 32H130.544L122.384 9.84H128.384L133.984 26.84ZM147.25 20.84C147.25 18.6 147.69 16.6133 148.57 14.88C149.476 13.1467 150.69 11.8133 152.21 10.88C153.756 9.94667 155.476 9.48 157.37 9.48C159.023 9.48 160.463 9.81333 161.69 10.48C162.943 11.1467 163.943 11.9867 164.69 13V9.84H170.33V32H164.69V28.76C163.97 29.8 162.97 30.6667 161.69 31.36C160.436 32.0267 158.983 32.36 157.33 32.36C155.463 32.36 153.756 31.88 152.21 30.92C150.69 29.96 149.476 28.6133 148.57 26.88C147.69 25.12 147.25 23.1067 147.25 20.84ZM164.69 20.92C164.69 19.56 164.423 18.4 163.89 17.44C163.356 16.4533 162.636 15.7067 161.73 15.2C160.823 14.6667 159.85 14.4 158.81 14.4C157.77 14.4 156.81 14.6533 155.93 15.16C155.05 15.6667 154.33 16.4133 153.77 17.4C153.236 18.36 152.97 19.5067 152.97 20.84C152.97 22.1733 153.236 23.3467 153.77 24.36C154.33 25.3467 155.05 26.1067 155.93 26.64C156.836 27.1733 157.796 27.44 158.81 27.44C159.85 27.44 160.823 27.1867 161.73 26.68C162.636 26.1467 163.356 25.4 163.89 24.44C164.423 23.4533 164.69 22.28 164.69 20.92Z" fill="#201D1D"/>
<path d="M178.279 32.28C177.266 32.28 176.426 31.9733 175.759 31.36C175.119 30.72 174.799 29.9333 174.799 29C174.799 28.0667 175.119 27.2933 175.759 26.68C176.426 26.04 177.266 25.72 178.279 25.72C179.266 25.72 180.079 26.04 180.719 26.68C181.359 27.2933 181.679 28.0667 181.679 29C181.679 29.9333 181.359 30.72 180.719 31.36C180.079 31.9733 179.266 32.28 178.279 32.28Z" fill="#0066FC"/>
<path d="M34.7318 15.8673H31.2947L29.0619 8.61643C28.5915 7.13114 27.5585 5.82052 26.124 4.88902C24.6895 3.95752 22.9341 3.45753 21.1318 3.46706H12.9472C11.0017 3.44701 9.11288 4.02545 7.626 5.09658C6.13913 6.1677 5.1536 7.65994 4.84966 9.30039L1.77466 26.3221C1.65978 26.9594 1.70811 27.6104 1.91632 28.2302C2.12454 28.85 2.48768 29.424 2.98074 29.9125C3.87688 30.793 5.13208 31.3494 6.49137 31.4685C6.68061 32.5922 7.33601 33.6205 8.33837 34.3665C9.34073 35.1126 10.6235 35.5267 11.9533 35.5335C13.2831 35.5404 14.5716 35.1396 15.5845 34.4041C16.5974 33.6685 17.2673 32.647 17.4725 31.5254H23.7455C23.95 32.6423 24.6154 33.6601 25.6215 34.3952C26.6277 35.1303 27.9084 35.5343 29.2327 35.5343C30.557 35.5343 31.8377 35.1303 32.8439 34.3952C33.85 33.6601 34.5154 32.6423 34.7199 31.5254V31.5254C35.9164 31.5328 37.0674 31.1346 37.9203 30.4182C38.7732 29.7019 39.2583 28.7259 39.2692 27.7046V19.6837C39.257 18.6649 38.7729 17.6916 37.9227 16.9765C37.0726 16.2614 35.9254 15.8626 34.7318 15.8673ZM17.9167 4.96914H21.1318C22.5454 4.95973 23.923 5.35008 25.0494 6.07925C26.1758 6.80843 26.9878 7.83543 27.3587 8.99997L29.4736 15.8687H18.7418C18.3005 15.8689 17.8647 15.7843 17.4668 15.6213C17.0689 15.4582 16.7191 15.2209 16.4432 14.9268C16.1672 14.6328 15.9723 14.2895 15.8728 13.9224C15.7734 13.5553 15.7718 13.1739 15.8684 12.8062L17.9167 4.96914ZM11.9888 34.0308C11.2339 34.0311 10.4959 33.8403 9.86803 33.4825C9.2402 33.1246 8.75077 32.6159 8.46166 32.0207C8.17254 31.4254 8.09672 30.7703 8.24378 30.1382C8.39085 29.5061 8.75419 28.9255 9.28786 28.4697C9.82153 28.0139 10.5015 27.7035 11.2419 27.5777C11.9823 27.4519 12.7497 27.5163 13.4472 27.7628C14.1446 28.0094 14.7408 28.4269 15.1602 28.9627C15.5796 29.4985 15.8035 30.1285 15.8035 30.7729C15.8026 31.6365 15.4004 32.4644 14.6853 33.0752C13.9701 33.686 13.0004 34.0296 11.9888 34.0308V34.0308ZM29.243 34.0308C28.4881 34.0311 27.75 33.8403 27.1222 33.4825C26.4944 33.1246 26.0049 32.6159 25.7158 32.0207C25.4267 31.4254 25.3509 30.7703 25.498 30.1382C25.645 29.5061 26.0084 28.9255 26.542 28.4697C27.0757 28.0139 27.7557 27.7035 28.4961 27.5777C29.2364 27.4519 30.0039 27.5163 30.7013 27.7628C31.3988 28.0094 31.9949 28.4269 32.4144 28.9627C32.8338 29.4985 33.0577 30.1285 33.0577 30.7729C33.0568 31.6375 32.6537 32.4663 31.937 33.0773C31.2204 33.6882 30.2489 34.0312 29.2361 34.0308H29.243ZM37.5267 27.7046C37.5159 28.3256 37.2177 28.9179 36.6973 29.352C36.1769 29.7861 35.4765 30.0269 34.7489 30.0218C34.5405 28.903 33.8715 27.8844 32.8621 27.1489C31.8527 26.4134 30.5692 26.0094 29.2421 26.0094C27.915 26.0094 26.6315 26.4134 25.6221 27.1489C24.6127 27.8844 23.9437 28.903 23.7353 30.0218H17.4947C17.2664 28.9113 16.5917 27.9034 15.5868 27.1717C14.5818 26.4399 13.3095 26.0302 11.9888 26.0129C10.6769 26.0299 9.41242 26.4342 8.41024 27.1571C7.40806 27.8799 6.73002 28.8768 6.49137 29.9781C5.64787 29.8612 4.87999 29.4934 4.32349 28.9398C3.9956 28.6158 3.75387 28.235 3.61497 27.8237C3.47606 27.4123 3.44327 26.9801 3.51887 26.5569L6.59387 9.53518C6.83348 8.24944 7.60744 7.08034 8.77413 6.24186C9.94082 5.40337 11.4222 4.95157 12.9472 4.96914H16.1127L14.1498 12.4796C13.9966 13.0668 13.9998 13.676 14.1593 14.2621C14.3187 14.8482 14.6304 15.3962 15.0711 15.8657C15.5119 16.3352 16.0706 16.7142 16.7059 16.9747C17.3412 17.2352 18.037 17.3706 18.7418 17.3708H34.7318C35.4613 17.363 36.1646 17.6027 36.6874 18.0371C37.2101 18.4716 37.5095 19.0654 37.5198 19.6881L37.5267 27.7046Z" fill="#0066FC"/>
</svg>
