<svg width="129" height="36" viewBox="0 0 129 36" fill="none" xmlns="http://www.w3.org/2000/svg">
<path d="M40.91 17.9C40.91 16.1147 41.3087 14.52 42.106 13.116C42.9207 11.6947 44.0213 10.594 45.408 9.814C46.812 9.01667 48.3807 8.618 50.114 8.618C52.142 8.618 53.9187 9.138 55.444 10.178C56.9693 11.218 58.0353 12.6567 58.642 14.494H54.456C54.04 13.6273 53.4507 12.9773 52.688 12.544C51.9427 12.1107 51.076 11.894 50.088 11.894C49.0307 11.894 48.086 12.1453 47.254 12.648C46.4393 13.1333 45.798 13.8267 45.33 14.728C44.8793 15.6293 44.654 16.6867 44.654 17.9C44.654 19.096 44.8793 20.1533 45.33 21.072C45.798 21.9733 46.4393 22.6753 47.254 23.178C48.086 23.6633 49.0307 23.906 50.088 23.906C51.076 23.906 51.9427 23.6893 52.688 23.256C53.4507 22.8053 54.04 22.1467 54.456 21.28H58.642C58.0353 23.1347 56.9693 24.582 55.444 25.622C53.936 26.6447 52.1593 27.156 50.114 27.156C48.3807 27.156 46.812 26.766 45.408 25.986C44.0213 25.1887 42.9207 24.088 42.106 22.684C41.3087 21.28 40.91 19.6853 40.91 17.9ZM60.815 19.746C60.815 18.29 61.101 16.9987 61.673 15.872C62.2624 14.7453 63.051 13.8787 64.039 13.272C65.0444 12.6653 66.1624 12.362 67.393 12.362C68.4677 12.362 69.4037 12.5787 70.201 13.012C71.0157 13.4453 71.6657 13.9913 72.151 14.65V12.596H75.817V27H72.151V24.894C71.683 25.57 71.033 26.1333 70.201 26.584C69.3864 27.0173 68.4417 27.234 67.367 27.234C66.1537 27.234 65.0444 26.922 64.039 26.298C63.051 25.674 62.2624 24.7987 61.673 23.672C61.101 22.528 60.815 21.2193 60.815 19.746ZM72.151 19.798C72.151 18.914 71.9777 18.16 71.631 17.536C71.2844 16.8947 70.8164 16.4093 70.227 16.08C69.6377 15.7333 69.005 15.56 68.329 15.56C67.653 15.56 67.029 15.7247 66.457 16.054C65.885 16.3833 65.417 16.8687 65.053 17.51C64.7064 18.134 64.533 18.8793 64.533 19.746C64.533 20.6127 64.7064 21.3753 65.053 22.034C65.417 22.6753 65.885 23.1693 66.457 23.516C67.0464 23.8627 67.6704 24.036 68.329 24.036C69.005 24.036 69.6377 23.8713 70.227 23.542C70.8164 23.1953 71.2844 22.71 71.631 22.086C71.9777 21.4447 72.151 20.682 72.151 19.798ZM83.0121 14.832C83.4801 14.0693 84.0868 13.4713 84.8321 13.038C85.5948 12.6047 86.4615 12.388 87.4321 12.388V16.21H86.4701C85.3261 16.21 84.4595 16.4787 83.8701 17.016C83.2981 17.5533 83.0121 18.4893 83.0121 19.824V27H79.3721V12.596H83.0121V14.832ZM95.8898 23.646L99.5298 12.596H103.404L98.0738 27H93.6538L88.3498 12.596H92.2498L95.8898 23.646ZM104.512 19.746C104.512 18.29 104.798 16.9987 105.37 15.872C105.96 14.7453 106.748 13.8787 107.736 13.272C108.742 12.6653 109.86 12.362 111.09 12.362C112.165 12.362 113.101 12.5787 113.898 13.012C114.713 13.4453 115.363 13.9913 115.848 14.65V12.596H119.514V27H115.848V24.894C115.38 25.57 114.73 26.1333 113.898 26.584C113.084 27.0173 112.139 27.234 111.064 27.234C109.851 27.234 108.742 26.922 107.736 26.298C106.748 25.674 105.96 24.7987 105.37 23.672C104.798 22.528 104.512 21.2193 104.512 19.746ZM115.848 19.798C115.848 18.914 115.675 18.16 115.328 17.536C114.982 16.8947 114.514 16.4093 113.924 16.08C113.335 15.7333 112.702 15.56 112.026 15.56C111.35 15.56 110.726 15.7247 110.154 16.054C109.582 16.3833 109.114 16.8687 108.75 17.51C108.404 18.134 108.23 18.8793 108.23 19.746C108.23 20.6127 108.404 21.3753 108.75 22.034C109.114 22.6753 109.582 23.1693 110.154 23.516C110.744 23.8627 111.368 24.036 112.026 24.036C112.702 24.036 113.335 23.8713 113.924 23.542C114.514 23.1953 114.982 22.71 115.328 22.086C115.675 21.4447 115.848 20.682 115.848 19.798Z" fill="#201D1D"/>
<path d="M124.681 27.182C124.023 27.182 123.477 26.9827 123.043 26.584C122.627 26.168 122.419 25.6567 122.419 25.05C122.419 24.4433 122.627 23.9407 123.043 23.542C123.477 23.126 124.023 22.918 124.681 22.918C125.323 22.918 125.851 23.126 126.267 23.542C126.683 23.9407 126.891 24.4433 126.891 25.05C126.891 25.6567 126.683 26.168 126.267 26.584C125.851 26.9827 125.323 27.182 124.681 27.182Z" fill="#0066FC"/>
<path d="M28.8026 14.49H25.9523L24.1007 8.48213C23.7106 7.25146 22.854 6.16552 21.6644 5.3937C20.4748 4.62189 19.0192 4.20762 17.5245 4.21551H10.7373C9.12402 4.1989 7.55764 4.67817 6.32462 5.56568C5.0916 6.45318 4.27434 7.68961 4.02229 9.04884L1.47229 23.1525C1.37702 23.6806 1.4171 24.22 1.58977 24.7335C1.76243 25.2471 2.06358 25.7227 2.47245 26.1274C3.2156 26.857 4.25649 27.318 5.3837 27.4167C5.54064 28.3477 6.08414 29.1998 6.91537 29.8179C7.74659 30.4361 8.81032 30.7792 9.91308 30.7849C11.0158 30.7906 12.0844 30.4585 12.9243 29.849C13.7643 29.2396 14.3199 28.3932 14.49 27.4638H19.692C19.8616 28.3893 20.4134 29.2326 21.2477 29.8417C22.0821 30.4508 23.1442 30.7855 24.2424 30.7855C25.3406 30.7855 26.4026 30.4508 27.237 29.8417C28.0714 29.2326 28.6231 28.3893 28.7927 27.4638V27.4638C29.7849 27.47 30.7394 27.14 31.4467 26.5465C32.154 25.9529 32.5563 25.1443 32.5653 24.298V17.6522C32.5552 16.808 32.1538 16.0015 31.4487 15.409C30.7437 14.8165 29.7924 14.4861 28.8026 14.49ZM14.8584 5.46009H17.5245C18.6968 5.45229 19.8392 5.77572 20.7733 6.3799C21.7074 6.98408 22.3808 7.83501 22.6883 8.79992L24.4421 14.4912H15.5426C15.1766 14.4913 14.8153 14.4212 14.4853 14.2861C14.1553 14.1511 13.8652 13.9544 13.6364 13.7107C13.4076 13.4671 13.246 13.1827 13.1635 12.8785C13.081 12.5744 13.0797 12.2583 13.1598 11.9537L14.8584 5.46009ZM9.94254 29.5398C9.31653 29.54 8.70451 29.3819 8.18386 29.0854C7.66322 28.7889 7.25736 28.3674 7.0176 27.8742C6.77785 27.381 6.71497 26.8382 6.83693 26.3144C6.95888 25.7907 7.26019 25.3096 7.70275 24.932C8.1453 24.5543 8.70922 24.2971 9.32317 24.1929C9.93713 24.0886 10.5735 24.142 11.1519 24.3463C11.7303 24.5506 12.2247 24.8966 12.5725 25.3405C12.9203 25.7844 13.106 26.3064 13.106 26.8403C13.1052 27.5559 12.7717 28.2419 12.1787 28.748C11.5856 29.254 10.7814 29.5388 9.94254 29.5398V29.5398ZM24.2509 29.5398C23.6249 29.54 23.0128 29.3819 22.4922 29.0854C21.9716 28.7889 21.5657 28.3674 21.3259 27.8742C21.0862 27.381 21.0233 26.8382 21.1453 26.3144C21.2672 25.7907 21.5685 25.3096 22.0111 24.932C22.4536 24.5543 23.0175 24.2971 23.6315 24.1929C24.2455 24.0886 24.8819 24.142 25.4603 24.3463C26.0386 24.5506 26.533 24.8966 26.8808 25.3405C27.2286 25.7844 27.4143 26.3064 27.4143 26.8403C27.4135 27.5567 27.0793 28.2435 26.485 28.7497C25.8907 29.2559 25.0851 29.5401 24.2452 29.5398H24.2509ZM31.1203 24.298C31.1113 24.8126 30.8641 25.3033 30.4326 25.663C30.001 26.0227 29.4202 26.2223 28.8168 26.218C28.644 25.291 28.0892 24.447 27.2521 23.8376C26.4151 23.2282 25.3507 22.8934 24.2502 22.8934C23.1497 22.8934 22.0852 23.2282 21.2482 23.8376C20.4112 24.447 19.8564 25.291 19.6835 26.218H14.5085C14.3191 25.2979 13.7596 24.4627 12.9262 23.8565C12.0928 23.2502 11.0377 22.9107 9.94254 22.8963C8.85464 22.9105 7.80604 23.2454 6.97496 23.8444C6.14388 24.4433 5.58161 25.2693 5.3837 26.1818C4.68422 26.0849 4.04744 25.7802 3.58595 25.3215C3.31404 25.053 3.11359 24.7375 2.9984 24.3967C2.8832 24.0558 2.85602 23.6977 2.9187 23.347L5.4687 9.24338C5.6674 8.17805 6.30923 7.20937 7.27673 6.51462C8.24423 5.81988 9.47269 5.44553 10.7373 5.46009H13.3624L11.7346 11.683C11.6075 12.1696 11.6102 12.6743 11.7425 13.16C11.8747 13.6456 12.1331 14.0996 12.4986 14.4886C12.8642 14.8777 13.3274 15.1917 13.8543 15.4075C14.3812 15.6234 14.9581 15.7356 15.5426 15.7358H28.8026C29.4076 15.7293 29.9908 15.9279 30.4243 16.2878C30.8578 16.6478 31.106 17.1398 31.1146 17.6558L31.1203 24.298Z" fill="#0066FC"/>
</svg>
